<svg xmlns="http://www.w3.org/2000/svg" width="920" height="556" viewBox="0 0 920 556" version="1.1"><path d="M 693.462 9.911 C 691.472 12.062, 688.930 15.550, 687.813 17.661 C 686.160 20.788, 675.184 35.101, 672.983 37 C 672.664 37.275, 671.307 39.075, 669.966 41 C 667.397 44.688, 666.118 46.340, 661.916 51.393 C 660.495 53.102, 657.440 57.313, 655.129 60.750 C 652.817 64.188, 650.492 67, 649.963 67 C 649.433 67, 649 67.638, 649 68.417 C 649 69.196, 648.663 69.983, 648.250 70.167 C 647.837 70.350, 643.921 75.225, 639.547 81 C 635.173 86.775, 631.136 91.813, 630.576 92.196 C 630.016 92.578, 629.806 93.139, 630.108 93.442 C 630.411 93.744, 634.963 88.481, 640.224 81.746 C 645.486 75.011, 655.279 62.525, 661.987 54 C 668.695 45.475, 679.360 31.863, 685.686 23.750 C 696.793 9.507, 701.797 3.979, 694.739 13.750 C 682.207 31.098, 659.888 64.222, 660.392 64.726 C 660.727 65.060, 661 64.893, 661 64.355 C 661 63.817, 661.809 62.505, 662.799 61.439 C 663.788 60.372, 666.441 56.782, 668.694 53.460 C 670.946 50.138, 673.512 46.820, 674.395 46.087 C 675.278 45.355, 676 44.310, 676 43.766 C 676 43.223, 677.800 40.628, 680 38 C 682.200 35.372, 684 32.831, 684 32.352 C 684 31.873, 684.900 30.919, 686 30.232 C 687.100 29.545, 688 28.312, 688 27.492 C 688 26.671, 688.362 26, 688.804 26 C 689.245 26, 690.883 23.638, 692.442 20.750 C 694.001 17.862, 696.786 13.659, 698.630 11.408 C 700.474 9.157, 701.686 7.020, 701.324 6.658 C 699.741 5.074, 696.819 6.283, 693.462 9.911 M 625.048 99.430 C 623.319 101.943, 622.075 104, 622.285 104 C 623.108 104, 629.170 95.836, 628.697 95.363 C 628.420 95.086, 626.778 96.916, 625.048 99.430 M 602.404 128.750 C 600.294 131.363, 598.306 133.725, 597.986 134 C 597.666 134.275, 596.376 136.075, 595.119 138 L 592.835 141.500 595.435 138.500 C 599.893 133.358, 607.154 124, 606.687 124 C 606.442 124, 604.514 126.138, 602.404 128.750 M 216.485 275 C 216.485 346.225, 216.604 375.362, 216.750 339.750 C 216.895 304.137, 216.895 245.862, 216.750 210.250 C 216.604 174.637, 216.485 203.775, 216.485 275 M 390.310 152.500 C 390.315 155.800, 390.502 157.029, 390.725 155.232 C 390.947 153.435, 390.943 150.735, 390.715 149.232 C 390.486 147.729, 390.304 149.200, 390.310 152.500 M 618.421 151.457 C 618.082 152.808, 618.263 155.171, 618.823 156.707 C 619.748 159.242, 619.849 159.016, 619.921 154.250 C 620.006 148.607, 619.414 147.504, 618.421 151.457 M 233.241 211.750 C 233.014 260.942, 233.102 263.999, 234.750 263.985 C 235.988 263.974, 236.137 263.739, 235.259 263.181 C 234.304 262.574, 233.957 250.571, 233.750 210.947 L 233.481 159.500 233.241 211.750 M 710.484 282.500 C 710.484 350.150, 710.604 377.972, 710.750 344.327 C 710.896 310.683, 710.896 255.333, 710.750 221.327 C 710.604 187.322, 710.484 214.850, 710.484 282.500 M 16.454 231.500 C 16.453 252.400, 16.586 261.092, 16.748 250.816 C 16.911 240.540, 16.911 223.440, 16.749 212.816 C 16.587 202.192, 16.454 210.600, 16.454 231.500 M 233.242 333.750 C 233.014 387.704, 233.101 390.999, 234.750 390.985 C 235.989 390.974, 236.137 390.739, 235.258 390.181 C 234.299 389.571, 233.956 376.571, 233.750 332.946 L 233.483 276.500 233.242 333.750 M 269.323 277.750 C 287.925 277.902, 318.075 277.902, 336.323 277.749 C 354.570 277.597, 339.350 277.472, 302.500 277.472 C 265.650 277.472, 250.720 277.597, 269.323 277.750 M 831.079 372.250 C 831.122 373.488, 831.385 373.938, 831.662 373.250 C 831.945 372.549, 833.886 372, 836.083 372 C 838.237 372, 840 371.550, 840 371 C 840 370.450, 837.975 370, 835.500 370 C 831.477 370, 831.008 370.238, 831.079 372.250 M 388.956 390.560 C 391.831 391.105, 391.922 391.302, 392.285 397.810 L 392.660 404.500 392.580 397.500 L 392.500 390.500 389.250 390.250 C 386.128 390.010, 386.116 390.022, 388.956 390.560 M 373.250 405.735 C 375.863 405.941, 380.137 405.941, 382.750 405.735 C 385.363 405.529, 383.225 405.360, 378 405.360 C 372.775 405.360, 370.637 405.529, 373.250 405.735 M 404.728 405.722 C 406.503 405.943, 409.653 405.946, 411.728 405.730 C 413.802 405.513, 412.350 405.333, 408.500 405.328 C 404.650 405.324, 402.952 405.501, 404.728 405.722 M 599.250 405.728 C 601.313 405.944, 604.688 405.944, 606.750 405.728 C 608.813 405.513, 607.125 405.336, 603 405.336 C 598.875 405.336, 597.188 405.513, 599.250 405.728 M 715.768 405.725 C 717.565 405.947, 720.265 405.943, 721.768 405.715 C 723.271 405.486, 721.800 405.304, 718.500 405.310 C 715.200 405.315, 713.971 405.502, 715.768 405.725 M 257.993 501.989 C 270.097 520.133, 280 535.263, 280 535.611 C 280 535.960, 279.230 535.627, 278.289 534.872 C 277.110 533.926, 277.265 534.480, 278.789 536.654 C 280.005 538.389, 281 540.302, 281 540.904 C 281 541.507, 281.450 542, 282 542 C 283.455 542, 283.229 540.910, 281.339 538.823 C 280.426 537.813, 279.910 536.756, 280.193 536.474 C 280.476 536.191, 282.011 537.872, 283.604 540.211 C 287.848 546.440, 288.537 547.896, 285.635 544.500 C 282.917 541.319, 282.231 541.695, 284.164 545.307 C 285.914 548.577, 293 555.290, 293 553.678 C 293 552.909, 291.871 550.615, 290.491 548.581 C 289.110 546.548, 287.129 543.222, 286.088 541.192 C 285.047 539.161, 283.204 536.375, 281.992 535 C 278.637 531.193, 274 524.272, 274 523.070 C 274 522.481, 273.550 522, 273 522 C 272.450 522, 272 521.429, 272 520.732 C 272 520.034, 270.313 517.379, 268.250 514.831 C 266.188 512.282, 262.700 507.238, 260.500 503.621 C 258.300 500.003, 256.163 497.034, 255.750 497.022 C 255.338 497.010, 255 496.410, 255 495.689 C 255 494.967, 254.213 493.480, 253.250 492.384 C 252.287 491.288, 251.050 489.707, 250.500 488.872 C 249.950 488.037, 246.800 483.250, 243.500 478.236 C 240.200 473.221, 237.159 469.092, 236.743 469.059 C 236.326 469.027, 245.888 483.845, 257.993 501.989 M 239 483.382 C 239 483.812, 240.575 486.085, 242.500 488.435 C 244.425 490.784, 246 493.152, 246 493.698 C 246 494.244, 246.900 495.505, 248 496.500 C 249.100 497.495, 250 498.816, 250 499.434 C 250 500.053, 250.900 501.207, 252 502 C 253.100 502.793, 254.022 503.905, 254.049 504.471 C 254.076 505.037, 255.925 507.300, 258.158 509.500 C 260.638 511.943, 258.034 507.857, 251.466 499 C 239.631 483.038, 239 482.248, 239 483.382 M 266.517 520.750 C 268.746 524.509, 270.158 526.236, 272.445 528 C 273.514 528.825, 272.448 526.913, 270.075 523.750 C 265.469 517.612, 263.845 516.243, 266.517 520.750" stroke="none" fill="#d1d1d1" fill-rule="evenodd"/><path d="M 685.309 24.250 C 678.758 32.638, 668.449 45.800, 662.400 53.500 C 656.351 61.200, 641.338 80.325, 629.039 96 C 616.739 111.675, 603.436 128.567, 599.477 133.538 C 595.517 138.510, 576.463 164.160, 557.134 190.538 C 506.255 259.977, 506.887 259.133, 506.019 258.803 C 505.581 258.636, 498.133 248.600, 489.468 236.500 C 480.803 224.400, 462.670 199.088, 449.173 180.250 L 424.633 146 415.817 146 C 410.967 146, 407 146.214, 407 146.476 C 407 146.738, 409.813 150.817, 413.250 155.541 C 416.688 160.265, 420.175 165.131, 421 166.354 C 423.244 169.681, 440.278 193.272, 441.685 195 C 442.356 195.825, 444.839 199.296, 447.203 202.713 C 450.942 208.118, 468.401 232.423, 483.271 252.922 C 491.975 264.921, 496 270.880, 496 271.768 C 496 272.251, 493.219 276.438, 489.821 281.073 C 475.444 300.680, 401.360 402.606, 400.654 403.750 C 400.057 404.717, 401.988 404.987, 409.191 404.942 L 418.500 404.884 429 390.277 C 445.990 366.640, 464.513 341.026, 481.710 317.387 C 490.558 305.225, 499.482 292.738, 501.540 289.637 C 503.599 286.537, 505.653 284, 506.104 284 C 506.556 284, 508.731 286.587, 510.939 289.750 C 513.146 292.912, 517.775 299.408, 521.226 304.184 C 524.677 308.960, 536.360 325.160, 547.188 340.184 C 558.017 355.208, 572.885 375.825, 580.228 386 L 593.580 404.500 602.790 404.788 C 607.856 404.946, 611.988 404.721, 611.973 404.288 C 611.948 403.566, 599.795 386.555, 566.044 340 C 528.947 288.828, 517 272.158, 517 271.566 C 517 271.206, 520.536 265.869, 524.859 259.706 C 529.181 253.543, 552.867 219.250, 577.495 183.500 C 602.122 147.750, 627.419 111.075, 633.710 102 C 640.001 92.925, 654.610 71.775, 666.174 55 C 677.739 38.225, 689.641 21.013, 692.623 16.750 C 695.605 12.487, 697.859 9, 697.633 9 C 697.406 9, 691.860 15.863, 685.309 24.250 M -0 275.465 L 0 405 8 405 L 16 405 16.250 299.250 C 16.387 241.088, 16.397 187.313, 16.272 179.750 C 16.146 172.188, 16.371 166.022, 16.772 166.049 C 17.172 166.077, 23.651 175.189, 31.170 186.299 C 38.688 197.410, 53.487 219.100, 64.058 234.500 C 74.628 249.900, 92.374 275.775, 103.495 292 C 114.615 308.225, 136.684 340.400, 152.538 363.499 C 170.902 390.257, 200.397 430.902, 233.812 475.499 C 262.659 514, 286.737 545.950, 287.319 546.500 C 288.821 547.920, 291.950 552.630, 217.738 441.747 C 180.469 386.061, 120.785 296.850, 85.107 243.500 L 20.238 146.500 10.119 146.215 L -0 145.930 -0 275.465 M 217 275.505 L 217 405.011 304.250 404.755 L 391.500 404.500 391.796 397.750 L 392.091 391 312.546 391 L 233 391 233 334 L 233 277 307 277 L 381 277 381 270.164 L 381 263.328 307 263.471 L 233 263.614 233 211.813 L 233 160.012 311.250 159.756 L 389.500 159.500 390 152.749 L 390.500 145.998 303.750 145.999 L 217 146 217 275.505 M 620 153 L 620 160 665.500 160 L 711 160 711 282.500 L 711 405 718.496 405 L 725.992 405 726.246 282.470 L 726.500 159.940 771.833 159.720 L 817.167 159.500 817.333 152.749 L 817.500 145.999 718.750 145.999 L 620 146 620 153 M 891.764 329.996 C 883.457 332.497, 879 338.199, 879 346.324 C 879 349.744, 879.639 351.606, 881.619 353.959 C 885.052 358.039, 887.903 359.428, 898.013 361.944 C 909.593 364.826, 913.281 368.870, 909.970 375.055 C 906.197 382.107, 890.074 381.307, 886.798 373.906 C 885.662 371.339, 885.003 371, 881.149 371 C 877.581 371, 876.897 371.288, 877.393 372.582 C 877.727 373.452, 878 374.786, 878 375.547 C 878 378.098, 884.049 383.853, 888.530 385.565 C 894.433 387.819, 907.157 387.199, 911.865 384.427 C 916.898 381.464, 919.467 376.527, 919.467 369.817 C 919.467 365.137, 919.025 363.653, 916.983 361.466 C 913.642 357.886, 908.720 355.498, 901.500 353.952 C 887.704 350.999, 883.444 345.781, 889.834 339.660 C 892.145 337.445, 893.666 336.919, 898.084 336.803 C 904.481 336.635, 907.421 337.979, 909.515 342.030 C 910.828 344.568, 911.630 345, 915.026 345 C 919.392 345, 919.646 344.482, 917.636 339.671 C 914.177 331.392, 902.112 326.880, 891.764 329.996 M 857.667 330.667 C 857.300 331.033, 857 340.908, 857 352.611 C 857 373.252, 856.933 373.965, 854.750 376.445 C 851.305 380.360, 847.043 380.749, 843.182 377.500 C 841.432 376.027, 840 374.187, 840 373.411 C 840 372.431, 838.777 372, 836 372 C 832.467 372, 832 372.275, 832 374.352 C 832 377.762, 835.996 383.218, 840.020 385.303 C 844.740 387.749, 855.373 387.294, 859.222 384.481 C 864.910 380.325, 865.470 377.631, 865.818 352.750 L 866.135 330 862.234 330 C 860.089 330, 858.033 330.300, 857.667 330.667" stroke="none" fill="#050505" fill-rule="evenodd"/></svg>